{
    "asset" : {
        "generator" : "Khronos glTF Blender I/O v3.4.50",
        "version" : "2.0"
    },
    "scene" : 0,
    "scenes" : [
        {
            "name" : "Scene",
            "nodes" : [
                0
            ]
        }
    ],
    "nodes" : [
        {
            "mesh" : 0,
            "name" : "Cube.002",
            "scale" : [
                0.4430241584777832,
                0.4430241584777832,
                0.4430241584777832
            ]
        }
    ],
    "animations" : [
        {
            "channels" : [
                {
                    "sampler" : 0,
                    "target" : {
                        "node" : 0,
                        "path" : "translation"
                    }
                },
                {
                    "sampler" : 1,
                    "target" : {
                        "node" : 0,
                        "path" : "rotation"
                    }
                },
                {
                    "sampler" : 2,
                    "target" : {
                        "node" : 0,
                        "path" : "scale"
                    }
                }
            ],
            "name" : "Cube.002",
            "samplers" : [
                {
                    "input" : 4,
                    "interpolation" : "LINEAR",
                    "output" : 5
                },
                {
                    "input" : 4,
                    "interpolation" : "LINEAR",
                    "output" : 6
                },
                {
                    "input" : 4,
                    "interpolation" : "LINEAR",
                    "output" : 7
                }
            ]
        }
    ],
    "materials" : [
        {
            "doubleSided" : true,
            "emissiveFactor" : [
                0.5446661114692688,
                0.5488521456718445,
                0.4783972501754761
            ],
            "name" : "Material.001",
            "pbrMetallicRoughness" : {
                "baseColorFactor" : [
                    0.3931145668029785,
                    0.38160252571105957,
                    0.38160252571105957,
                    1
                ],
                "metallicFactor" : 0,
                "roughnessFactor" : 0.5
            }
        }
    ],
    "meshes" : [
        {
            "name" : "Cube.004",
            "primitives" : [
                {
                    "attributes" : {
                        "POSITION" : 0,
                        "TEXCOORD_0" : 1,
                        "NORMAL" : 2
                    },
                    "indices" : 3,
                    "material" : 0
                }
            ]
        }
    ],
    "accessors" : [
        {
            "bufferView" : 0,
            "componentType" : 5126,
            "count" : 1728,
            "max" : [
                1.7829010486602783,
                1.7829010486602783,
                1.7829010486602783
            ],
            "min" : [
                -1.7829010486602783,
                -1.7829010486602783,
                -1.7829010486602783
            ],
            "type" : "VEC3"
        },
        {
            "bufferView" : 1,
            "componentType" : 5126,
            "count" : 1728,
            "type" : "VEC2"
        },
        {
            "bufferView" : 2,
            "componentType" : 5126,
            "count" : 1728,
            "type" : "VEC3"
        },
        {
            "bufferView" : 3,
            "componentType" : 5123,
            "count" : 2592,
            "type" : "SCALAR"
        },
        {
            "bufferView" : 4,
            "componentType" : 5126,
            "count" : 252,
            "max" : [
                10.458333333333334
            ],
            "min" : [
                0
            ],
            "type" : "SCALAR"
        },
        {
            "bufferView" : 5,
            "componentType" : 5126,
            "count" : 252,
            "type" : "VEC3"
        },
        {
            "bufferView" : 6,
            "componentType" : 5126,
            "count" : 252,
            "type" : "VEC4"
        },
        {
            "bufferView" : 7,
            "componentType" : 5126,
            "count" : 252,
            "type" : "VEC3"
        }
    ],
    "bufferViews" : [
        {
            "buffer" : 0,
            "byteLength" : 20736,
            "byteOffset" : 0,
            "target" : 34962
        },
        {
            "buffer" : 0,
            "byteLength" : 13824,
            "byteOffset" : 20736,
            "target" : 34962
        },
        {
            "buffer" : 0,
            "byteLength" : 20736,
            "byteOffset" : 34560,
            "target" : 34962
        },
        {
            "buffer" : 0,
            "byteLength" : 5184,
            "byteOffset" : 55296,
            "target" : 34963
        },
        {
            "buffer" : 0,
            "byteLength" : 1008,
            "byteOffset" : 60480
        },
        {
            "buffer" : 0,
            "byteLength" : 3024,
            "byteOffset" : 61488
        },
        {
            "buffer" : 0,
            "byteLength" : 4032,
            "byteOffset" : 64512
        },
        {
            "buffer" : 0,
            "byteLength" : 3024,
            "byteOffset" : 68544
        }
    ],
    "buffers" : [
        {
            "byteLength" : 71568,
            "uri" : "data:application/octet-stream;base64,"
        }
    ]
}
