{
    "asset" : {
        "generator" : "Khronos glTF Blender I/O v3.4.50",
        "version" : "2.0"
    },
    "scene" : 0,
    "scenes" : [
        {
            "name" : "Scene",
            "nodes" : [
                4
            ]
        }
    ],
    "nodes" : [
        {
            "name" : "footer",
            "translation" : [
                -3.725290298461914e-09,
                -5.960464477539063e-08,
                0
            ]
        },
        {
            "name" : "body",
            "translation" : [
                -3.725290298461914e-09,
                3.1436119079589844,
                0
            ]
        },
        {
            "name" : "header",
            "translation" : [
                -0.20000001788139343,
                4.076655864715576,
                0.29999998211860657
            ]
        },
        {
            "mesh" : 0,
            "name" : "Venus_retopo (1).002",
            "skin" : 0
        },
        {
            "children" : [
                3,
                0,
                1,
                2
            ],
            "name" : "Armature",
            "scale" : [
                1.7048207521438599,
                1.7048207521438599,
                1.7048207521438599
            ],
            "translation" : [
                -0.09338030219078064,
                1.5369774103164673,
                0.3891547918319702
            ]
        }
    ],
    "animations" : [
        {
            "channels" : [
                {
                    "sampler" : 0,
                    "target" : {
                        "node" : 0,
                        "path" : "translation"
                    }
                },
                {
                    "sampler" : 1,
                    "target" : {
                        "node" : 0,
                        "path" : "rotation"
                    }
                },
                {
                    "sampler" : 2,
                    "target" : {
                        "node" : 0,
                        "path" : "scale"
                    }
                },
                {
                    "sampler" : 3,
                    "target" : {
                        "node" : 1,
                        "path" : "translation"
                    }
                },
                {
                    "sampler" : 4,
                    "target" : {
                        "node" : 1,
                        "path" : "rotation"
                    }
                },
                {
                    "sampler" : 5,
                    "target" : {
                        "node" : 1,
                        "path" : "scale"
                    }
                },
                {
                    "sampler" : 6,
                    "target" : {
                        "node" : 2,
                        "path" : "translation"
                    }
                },
                {
                    "sampler" : 7,
                    "target" : {
                        "node" : 2,
                        "path" : "rotation"
                    }
                },
                {
                    "sampler" : 8,
                    "target" : {
                        "node" : 2,
                        "path" : "scale"
                    }
                }
            ],
            "name" : "AnimationFloat",
            "samplers" : [
                {
                    "input" : 7,
                    "interpolation" : "LINEAR",
                    "output" : 8
                },
                {
                    "input" : 7,
                    "interpolation" : "LINEAR",
                    "output" : 9
                },
                {
                    "input" : 7,
                    "interpolation" : "LINEAR",
                    "output" : 10
                },
                {
                    "input" : 7,
                    "interpolation" : "LINEAR",
                    "output" : 11
                },
                {
                    "input" : 7,
                    "interpolation" : "LINEAR",
                    "output" : 12
                },
                {
                    "input" : 7,
                    "interpolation" : "LINEAR",
                    "output" : 13
                },
                {
                    "input" : 7,
                    "interpolation" : "LINEAR",
                    "output" : 14
                },
                {
                    "input" : 7,
                    "interpolation" : "LINEAR",
                    "output" : 15
                },
                {
                    "input" : 7,
                    "interpolation" : "LINEAR",
                    "output" : 16
                }
            ]
        }
    ],
    "materials" : [
        {
            "doubleSided" : true,
            "emissiveFactor" : [
                1,
                1,
                1
            ],
            "emissiveTexture" : {
                "index" : 0
            },
            "name" : "Venus_Material",
            "normalTexture" : {
                "index" : 1
            },
            "pbrMetallicRoughness" : {
                "baseColorTexture" : {
                    "index" : 2
                },
                "metallicRoughnessTexture" : {
                    "index" : 3
                }
            }
        }
    ],
    "meshes" : [
        {
            "name" : "Venus_retopo (1).002",
            "primitives" : [
                {
                    "attributes" : {
                        "POSITION" : 0,
                        "TEXCOORD_0" : 1,
                        "NORMAL" : 2,
                        "JOINTS_0" : 3,
                        "WEIGHTS_0" : 4
                    },
                    "indices" : 5,
                    "material" : 0
                }
            ]
        }
    ],
    "textures" : [
        {
            "sampler" : 0,
            "source" : 0
        },
        {
            "sampler" : 0,
            "source" : 1
        },
        {
            "sampler" : 0,
            "source" : 2
        },
        {
            "sampler" : 0,
            "source" : 3
        }
    ],
    "images" : [
        {
            "bufferView" : 6,
            "mimeType" : "image/png",
            "name" : "Venus_Retopo_Venus_Material_Emissive"
        },
        {
            "bufferView" : 7,
            "mimeType" : "image/png",
            "name" : "Venus_Retopo_Venus_Material_Normal"
        },
        {
            "bufferView" : 8,
            "mimeType" : "image/png",
            "name" : "Venus_Retopo_Venus_Material_BaseColor"
        },
        {
            "bufferView" : 9,
            "mimeType" : "image/png",
            "name" : "Venus_Retopo_Venus_Material_Metallic-Venus_Retopo_Venus_Material_Roughness"
        }
    ],
    "skins" : [
        {
            "inverseBindMatrices" : 6,
            "joints" : [
                0,
                1,
                2
            ],
            "name" : "Armature"
        }
    ],
    "accessors" : [
        {
            "bufferView" : 0,
            "componentType" : 5126,
            "count" : 2026,
            "max" : [
                1.3686171770095825,
                9.720440864562988,
                1.709668755531311
            ],
            "min" : [
                -1.2095990180969238,
                1.4437979459762573,
                -0.6235759258270264
            ],
            "type" : "VEC3"
        },
        {
            "bufferView" : 1,
            "componentType" : 5126,
            "count" : 2026,
            "type" : "VEC2"
        },
        {
            "bufferView" : 2,
            "componentType" : 5126,
            "count" : 2026,
            "type" : "VEC3"
        },
        {
            "bufferView" : 3,
            "componentType" : 5121,
            "count" : 2026,
            "type" : "VEC4"
        },
        {
            "bufferView" : 4,
            "componentType" : 5126,
            "count" : 2026,
            "type" : "VEC4"
        },
        {
            "bufferView" : 5,
            "componentType" : 5123,
            "count" : 10674,
            "type" : "SCALAR"
        },
        {
            "bufferView" : 10,
            "componentType" : 5126,
            "count" : 3,
            "type" : "MAT4"
        },
        {
            "bufferView" : 11,
            "componentType" : 5126,
            "count" : 251,
            "max" : [
                10.416666666666666
            ],
            "min" : [
                0
            ],
            "type" : "SCALAR"
        },
        {
            "bufferView" : 12,
            "componentType" : 5126,
            "count" : 251,
            "type" : "VEC3"
        },
        {
            "bufferView" : 13,
            "componentType" : 5126,
            "count" : 251,
            "type" : "VEC4"
        },
        {
            "bufferView" : 14,
            "componentType" : 5126,
            "count" : 251,
            "type" : "VEC3"
        },
        {
            "bufferView" : 15,
            "componentType" : 5126,
            "count" : 251,
            "type" : "VEC3"
        },
        {
            "bufferView" : 16,
            "componentType" : 5126,
            "count" : 251,
            "type" : "VEC4"
        },
        {
            "bufferView" : 17,
            "componentType" : 5126,
            "count" : 251,
            "type" : "VEC3"
        },
        {
            "bufferView" : 18,
            "componentType" : 5126,
            "count" : 251,
            "type" : "VEC3"
        },
        {
            "bufferView" : 19,
            "componentType" : 5126,
            "count" : 251,
            "type" : "VEC4"
        },
        {
            "bufferView" : 20,
            "componentType" : 5126,
            "count" : 251,
            "type" : "VEC3"
        }
    ],
    "bufferViews" : [
        {
            "buffer" : 0,
            "byteLength" : 24312,
            "byteOffset" : 0,
            "target" : 34962
        },
        {
            "buffer" : 0,
            "byteLength" : 16208,
            "byteOffset" : 24312,
            "target" : 34962
        },
        {
            "buffer" : 0,
            "byteLength" : 24312,
            "byteOffset" : 40520,
            "target" : 34962
        },
        {
            "buffer" : 0,
            "byteLength" : 8104,
            "byteOffset" : 64832,
            "target" : 34962
        },
        {
            "buffer" : 0,
            "byteLength" : 32416,
            "byteOffset" : 72936,
            "target" : 34962
        },
        {
            "buffer" : 0,
            "byteLength" : 21348,
            "byteOffset" : 105352,
            "target" : 34963
        },
        {
            "buffer" : 0,
            "byteLength" : 3150,
            "byteOffset" : 126700
        },
        {
            "buffer" : 0,
            "byteLength" : 1026342,
            "byteOffset" : 129852
        },
        {
            "buffer" : 0,
            "byteLength" : 5357,
            "byteOffset" : 1156196
        },
        {
            "buffer" : 0,
            "byteLength" : 15800,
            "byteOffset" : 1161556
        },
        {
            "buffer" : 0,
            "byteLength" : 192,
            "byteOffset" : 1177356
        },
        {
            "buffer" : 0,
            "byteLength" : 1004,
            "byteOffset" : 1177548
        },
        {
            "buffer" : 0,
            "byteLength" : 3012,
            "byteOffset" : 1178552
        },
        {
            "buffer" : 0,
            "byteLength" : 4016,
            "byteOffset" : 1181564
        },
        {
            "buffer" : 0,
            "byteLength" : 3012,
            "byteOffset" : 1185580
        },
        {
            "buffer" : 0,
            "byteLength" : 3012,
            "byteOffset" : 1188592
        },
        {
            "buffer" : 0,
            "byteLength" : 4016,
            "byteOffset" : 1191604
        },
        {
            "buffer" : 0,
            "byteLength" : 3012,
            "byteOffset" : 1195620
        },
        {
            "buffer" : 0,
            "byteLength" : 3012,
            "byteOffset" : 1198632
        },
        {
            "buffer" : 0,
            "byteLength" : 4016,
            "byteOffset" : 1201644
        },
        {
            "buffer" : 0,
            "byteLength" : 3012,
            "byteOffset" : 1205660
        }
    ],
    "samplers" : [
        {
            "magFilter" : 9729,
            "minFilter" : 9987
        }
    ],
    "buffers" : [
        {
            "byteLength" : 1208672,
            "uri" : "data:application/octet-stream;base64,"
        }
    ]
}
